solid OpenSCAD_Model
facet normal -0 0 1
  outer loop
    vertex 0 5 5
    vertex 5 0 5
    vertex 5 5 5
  endloop
endfacet
facet normal 0 0 1
  outer loop
    vertex 5 0 5
    vertex 0 5 5
    vertex 0 0 5
  endloop
endfacet
facet normal 0 0 1
  outer loop
    vertex 0 0 0
    vertex 5 0 0
    vertex 5 5 0
  endloop
endfacet
facet normal 0 0 1
  outer loop
    vertex 5 5 0
    vertex 0 5 0
    vertex 0 0 0
  endloop
endfacet
facet normal 0 -1 0
  outer loop
    vertex 0 0 0
    vertex 5 0 5
    vertex 0 0 5
  endloop
endfacet
facet normal 0 -1 -0
  outer loop
    vertex 5 0 5
    vertex 0 0 0
    vertex 5 0 0
  endloop
endfacet
facet normal 1 -0 0
  outer loop
    vertex 5 0 5
    vertex 5 5 0
    vertex 5 5 5
  endloop
endfacet
facet normal 1 0 0
  outer loop
    vertex 5 5 0
    vertex 5 0 5
    vertex 5 0 0
  endloop
endfacet
facet normal 0 1 -0
  outer loop
    vertex 5 5 0
    vertex 0 5 5
    vertex 5 5 5
  endloop
endfacet
facet normal 0 1 0
  outer loop
    vertex 0 5 5
    vertex 5 5 0
    vertex 0 5 0
  endloop
endfacet
facet normal -1 0 0
  outer loop
    vertex 0 0 0
    vertex 0 5 5
    vertex 0 5 0
  endloop
endfacet
facet normal -1 -0 0
  outer loop
    vertex 0 5 5
    vertex 0 0 0
    vertex 0 0 5
  endloop
endfacet

facet normal 0 0 -5.29007
  outer loop
    vertex 0 0 0
    vertex 2.42705 1.76336 0
    vertex 3 0 0
  endloop
endfacet
facet normal 0 0 5.29007
  outer loop
    vertex 0 0 10
    vertex 3 0 10
    vertex 2.42705 1.76336 10
  endloop
endfacet
facet normal 17.6336 5.72949 -0
  outer loop
    vertex 3 0 0
    vertex 2.42705 1.76336 0
    vertex 3 0 10
  endloop
endfacet
facet normal 17.6336 5.72949 -0
  outer loop
    vertex 2.42705 1.76336 0
    vertex 2.42705 1.76336 10
    vertex 3 0 10
  endloop
endfacet
facet normal 0 0 -5.29007
  outer loop
    vertex 0 0 0
    vertex 0.927051 2.85317 0
    vertex 2.42705 1.76336 0
  endloop
endfacet
facet normal 0 0 5.29007
  outer loop
    vertex 0 0 10
    vertex 2.42705 1.76336 10
    vertex 0.927051 2.85317 10
  endloop
endfacet
facet normal 10.8981 15 -0
  outer loop
    vertex 2.42705 1.76336 0
    vertex 0.927051 2.85317 0
    vertex 2.42705 1.76336 10
  endloop
endfacet
facet normal 10.8981 15 -0
  outer loop
    vertex 0.927051 2.85317 0
    vertex 0.927051 2.85317 10
    vertex 2.42705 1.76336 10
  endloop
endfacet
facet normal 0 0 -5.29007
  outer loop
    vertex 0 0 0
    vertex -0.927051 2.85317 0
    vertex 0.927051 2.85317 0
  endloop
endfacet
facet normal 0 -0 5.29007
  outer loop
    vertex 0 0 10
    vertex 0.927051 2.85317 10
    vertex -0.927051 2.85317 10
  endloop
endfacet
facet normal 4.96805e-007 18.541 -0
  outer loop
    vertex 0.927051 2.85317 0
    vertex -0.927051 2.85317 0
    vertex 0.927051 2.85317 10
  endloop
endfacet
facet normal 4.96805e-007 18.541 -0
  outer loop
    vertex -0.927051 2.85317 0
    vertex -0.927051 2.85317 10
    vertex 0.927051 2.85317 10
  endloop
endfacet
facet normal 0 0 -5.29007
  outer loop
    vertex 0 0 0
    vertex -2.42705 1.76336 0
    vertex -0.927051 2.85317 0
  endloop
endfacet
facet normal 0 0 5.29007
  outer loop
    vertex 0 0 10
    vertex -0.927051 2.85317 10
    vertex -2.42705 1.76336 10
  endloop
endfacet
facet normal -10.8981 15 0
  outer loop
    vertex -0.927051 2.85317 0
    vertex -2.42705 1.76336 0
    vertex -0.927051 2.85317 10
  endloop
endfacet
facet normal -10.8981 15 0
  outer loop
    vertex -2.42705 1.76336 0
    vertex -2.42705 1.76336 10
    vertex -0.927051 2.85317 10
  endloop
endfacet
facet normal 0 0 -5.29007
  outer loop
    vertex 0 0 0
    vertex -3 1.60769e-007 0
    vertex -2.42705 1.76336 0
  endloop
endfacet
facet normal 0 0 5.29007
  outer loop
    vertex 0 0 10
    vertex -2.42705 1.76336 10
    vertex -3 1.60769e-007 10
  endloop
endfacet
facet normal -17.6336 5.72949 0
  outer loop
    vertex -2.42705 1.76336 0
    vertex -3 1.60769e-007 0
    vertex -2.42705 1.76336 10
  endloop
endfacet
facet normal -17.6336 5.72949 0
  outer loop
    vertex -3 1.60769e-007 0
    vertex -3 1.60769e-007 10
    vertex -2.42705 1.76336 10
  endloop
endfacet
facet normal -0 0 -5.29007
  outer loop
    vertex 0 0 0
    vertex -2.42705 -1.76336 0
    vertex -3 1.60769e-007 0
  endloop
endfacet
facet normal 0 0 5.29007
  outer loop
    vertex 0 0 10
    vertex -3 1.60769e-007 10
    vertex -2.42705 -1.76336 10
  endloop
endfacet
facet normal -17.6336 -5.72949 0
  outer loop
    vertex -3 1.60769e-007 0
    vertex -2.42705 -1.76336 0
    vertex -3 1.60769e-007 10
  endloop
endfacet
facet normal -17.6336 -5.72949 0
  outer loop
    vertex -2.42705 -1.76336 0
    vertex -2.42705 -1.76336 10
    vertex -3 1.60769e-007 10
  endloop
endfacet
facet normal 0 0 -5.29007
  outer loop
    vertex 0 0 0
    vertex -0.927051 -2.85317 0
    vertex -2.42705 -1.76336 0
  endloop
endfacet
facet normal 0 0 5.29007
  outer loop
    vertex 0 0 10
    vertex -2.42705 -1.76336 10
    vertex -0.927051 -2.85317 10
  endloop
endfacet
facet normal -10.8981 -15 0
  outer loop
    vertex -2.42705 -1.76336 0
    vertex -0.927051 -2.85317 0
    vertex -2.42705 -1.76336 10
  endloop
endfacet
facet normal -10.8981 -15 0
  outer loop
    vertex -0.927051 -2.85317 0
    vertex -0.927051 -2.85317 10
    vertex -2.42705 -1.76336 10
  endloop
endfacet
facet normal 0 -0 -5.29007
  outer loop
    vertex 0 0 0
    vertex 0.927051 -2.85317 0
    vertex -0.927051 -2.85317 0
  endloop
endfacet
facet normal 0 0 5.29007
  outer loop
    vertex 0 0 10
    vertex -0.927051 -2.85317 10
    vertex 0.927051 -2.85317 10
  endloop
endfacet
facet normal -1.49041e-006 -18.541 0
  outer loop
    vertex -0.927051 -2.85317 0
    vertex 0.927051 -2.85317 0
    vertex -0.927051 -2.85317 10
  endloop
endfacet
facet normal -1.49041e-006 -18.541 0
  outer loop
    vertex 0.927051 -2.85317 0
    vertex 0.927051 -2.85317 10
    vertex -0.927051 -2.85317 10
  endloop
endfacet
facet normal 0 0 -5.29007
  outer loop
    vertex 0 0 0
    vertex 2.42705 -1.76336 0
    vertex 0.927051 -2.85317 0
  endloop
endfacet
facet normal 0 0 5.29007
  outer loop
    vertex 0 0 10
    vertex 0.927051 -2.85317 10
    vertex 2.42705 -1.76336 10
  endloop
endfacet
facet normal 10.8981 -15 0
  outer loop
    vertex 0.927051 -2.85317 0
    vertex 2.42705 -1.76336 0
    vertex 0.927051 -2.85317 10
  endloop
endfacet
facet normal 10.8981 -15 0
  outer loop
    vertex 2.42705 -1.76336 0
    vertex 2.42705 -1.76336 10
    vertex 0.927051 -2.85317 10
  endloop
endfacet
facet normal 0 0 -5.29007
  outer loop
    vertex 0 0 0
    vertex 3 0 0
    vertex 2.42705 -1.76336 0
  endloop
endfacet
facet normal -0 0 5.29007
  outer loop
    vertex 0 0 10
    vertex 2.42705 -1.76336 10
    vertex 3 0 10
  endloop
endfacet
facet normal 17.6336 -5.72949 0
  outer loop
    vertex 2.42705 -1.76336 0
    vertex 3 0 0
    vertex 2.42705 -1.76336 10
  endloop
endfacet
facet normal 17.6336 -5.72949 0
  outer loop
    vertex 3 0 0
    vertex 3 0 10
    vertex 2.42705 -1.76336 10
  endloop
endfacet

endsolid OpenSCAD_Model
